<svg width="40" height="40" viewBox="0 0 40 40" fill="none" xmlns="http://www.w3.org/2000/svg">
<path d="M19.9492 16.8866C19.9492 17.2599 20.2492 17.5532 20.6159 17.5532C21.3759 17.5532 21.9892 18.1732 21.9892 18.9266C21.9892 19.2932 22.2892 19.5932 22.6559 19.5932C23.0226 19.5932 23.3226 19.2932 23.3226 18.9266C23.3226 17.4332 22.1092 16.2199 20.6159 16.2199C20.2492 16.2199 19.9492 16.5199 19.9492 16.8866ZM30.8026 19.5932C31.1759 19.5932 31.4692 19.2932 31.4692 18.9266C31.4692 12.9399 26.6026 8.07324 20.6159 8.07324C20.2492 8.07324 19.9492 8.37324 19.9492 8.73991C19.9492 9.10658 20.2492 9.40658 20.6159 9.40658C25.8692 9.40658 30.1359 13.6799 30.1359 18.9266C30.1359 19.2932 30.4359 19.5932 30.8026 19.5932Z" fill="white"/>
<path d="M26.0617 18.9267C26.0617 19.2933 26.3617 19.5933 26.7284 19.5933C27.095 19.5933 27.395 19.2933 27.395 18.9267C27.395 15.1867 24.355 12.1467 20.615 12.1467C20.2484 12.1467 19.9484 12.4467 19.9484 12.8133C19.9484 13.1867 20.2484 13.48 20.615 13.48C23.6217 13.48 26.0617 15.9267 26.0617 18.9267ZM20.615 4C20.2484 4 19.9484 4.3 19.9484 4.66667C19.9484 5.03333 20.2484 5.33333 20.615 5.33333C28.115 5.33333 34.215 11.4333 34.215 18.9267C34.215 19.2933 34.5084 19.5933 34.8817 19.5933C35.2484 19.5933 35.5484 19.2933 35.5484 18.9267C35.5484 10.6933 28.8484 4 20.615 4ZM27.1284 25.9533L26.255 26.4267C24.7817 27.2333 22.915 26.96 21.7217 25.7667L14.6817 18.7267C13.4884 17.5333 13.215 15.6667 14.0217 14.1867L14.495 13.32C15.0284 12.3333 15.2217 11.2267 15.0617 10.12C14.9106 9.01557 14.3998 7.99169 13.6084 7.20667C12.635 6.23333 11.3417 5.7 9.9617 5.7C8.5817 5.7 7.2817 6.23333 6.30837 7.20667L5.96837 7.55333C4.16837 9.35333 3.9617 12.4533 5.3817 16.2933C6.7217 19.96 9.4217 23.9333 12.9684 27.48C18.375 32.8867 24.395 36 28.715 36C30.4217 36 31.8684 35.5133 32.895 34.4867L33.2417 34.14C33.7218 33.6605 34.1025 33.0909 34.3622 32.4641C34.6219 31.8372 34.7554 31.1652 34.755 30.4867C34.7457 29.1202 34.2026 27.8116 33.2417 26.84C31.635 25.2333 29.1217 24.8733 27.1284 25.9533Z" fill="white"/>
</svg>
